<svg xmlns="http://www.w3.org/2000/svg" version="1.1" xmlns:xlink="http://www.w3.org/1999/xlink" viewBox="0 0 8.087853243691871 8.513560543007204"><g transform="matrix(1,0,0,1,0.6914526228224975,6.748107920184706)"><rect width="8.513560543007204" height="8.513560543007204" x="-0.9043062724801638" y="-6.748107920184706" fill="#3e7742"></rect><g clip-path="url(#SvgjsClipPath1002)"><g clip-path="url(#a5dea35ef-7089-4a19-a9fa-3df1c9dc72c8648acab3-3395-4101-934b-750b7ee356ef)"><path d=" M 3.8017729135446436 -2.381167946561196 C 3.643523634915914 -2.323280611343665 3.4882314492626936 -2.3073302310515285 3.336254792097164 -2.27740086578426 C 2.90156212469741 -2.191824387250604 2.4659733685171985 -2.1108179614972795 2.0307430478491697 -2.028108967061087 C 2.016853671752084 -2.0255103095977605 2.002785077898907 -2.0238973497929376 1.9890749195579134 -2.0206714301832918 C 1.9089645825850459 -2.0018535657936924 1.8468656300993667 -2.0207610390613375 1.7881718149794243 -2.0849209957420682 C 1.610298192058684 -2.2795514788573574 1.4270480364552007 -2.4693430825581775 1.243618663095626 -2.6589554685029064 C 1.1980077441703583 -2.706089738354952 1.1766808311954786 -2.756001883426414 1.1773080933417985 -2.8220436265461046 C 1.179637924170987 -3.0947234424392094 1.178204182122256 -3.36749286721036 1.1782937910003013 -3.640172683103465 C 1.1782937910003013 -3.654241276956642 1.179010662024667 -3.6683098708098187 1.1791898797807585 -3.6824680735410413 C 1.1797275330490327 -3.732469827490549 1.2074166763651584 -3.7606070151969035 1.2540132929489292 -3.7711808628062973 C 1.3137013392778645 -3.784829922996957 1.373629451649578 -3.797407059242466 1.4337687023086194 -3.808906200463541 C 2.151625424332837 -3.9447532595808434 2.8695717552350906 -4.080062665429871 3.587338868381252 -4.216088942303263 C 3.7076835915966453 -4.238849597326874 3.8281179236900837 -4.261968687862668 3.947835384759156 -4.2880448713739705 C 4.009127857342424 -4.301396594202782 4.055097211779875 -4.288224089130062 4.09909517090032 -4.241000210399971 C 4.2659469018214375 -4.0616928454305 4.436114161230247 -3.8855217911926276 4.604489243078142 -3.7076481682718874 C 4.620439623370278 -3.690801699199293 4.645888544735262 -3.668757915200048 4.643917149418256 -3.6516426194933165 C 4.632088777516222 -3.5450080546189175 4.705747275269798 -3.5611376526671465 4.769548796438345 -3.557194862033135 C 4.915432049896766 -3.548144365350518 5.061136085599095 -3.5363159934484836 5.2045102904722365 -3.505580148278804 C 5.278527223737996 -3.489719376864713 5.3507519794428395 -3.4683924638898334 5.417958637977124 -3.432996957061776 C 5.490810655828289 -3.3947339661362568 5.52862560236358 -3.3383699818455033 5.5277295135831235 -3.2519870234094355 C 5.524712683763171 -2.9887251143208187 5.524652940742765 -2.7254376234009525 5.527550295827033 -2.4621743723143985 C 5.528625602363582 -2.369339574659162 5.486867865194279 -2.3097496707587624 5.407026354855548 -2.2739957284185235 C 5.355608817620059 -2.2506330188483563 5.3022733945861145 -2.2317452636424067 5.247612160812224 -2.2175421352497233 C 5.115063104194423 -2.183154745600578 4.979023165632956 -2.164003929940102 4.842131987655375 -2.1604612799346046 C 4.639257487759879 -2.156070444910365 4.436114161230247 -2.149977041203256 4.235121447773713 -2.187254334470273 C 4.170334228946662 -2.1992619241283986 4.105098965729383 -2.210642251640204 4.041655880073018 -2.2280263739810726 C 3.9493587356859328 -2.2532064687119173 3.8633342127620485 -2.291111024125254 3.8017729135446436 -2.381167946561196 M 3.801683304666598 -3.3456283009672063 C 3.8783885042737283 -3.4280684687692617 3.9765998346118296 -3.4719768190116613 4.0838616616325485 -3.4958127805718213 C 4.16200060328841 -3.5131969029126893 4.241304460358867 -3.5250252748147237 4.320608317429322 -3.535599122424118 C 4.390234415670841 -3.5450080546189175 4.461025429326955 -3.5465314055456947 4.52823208786124 -3.567499883008392 C 4.527067172446645 -3.5805827792030662 4.529755438788017 -3.5927695866172824 4.524826950495503 -3.5979669015439337 C 4.357527175184156 -3.7765573954890406 4.189420919970399 -3.954431018409781 4.021493882512733 -4.132483859086612 C 3.995596916757521 -4.159904175768601 3.9645922449537045 -4.1595457402564175 3.930272044662196 -4.1528250744029895 C 3.726770282620382 -4.112949123672648 3.5230893028224757 -4.074327697234945 3.3194979319026157 -4.035079008650923 C 3.2362512841981483 -4.01903901948074 3.1530046364936806 -4.002909421432511 3.0700268154233505 -3.985704516847735 C 3.0547036972775334 -3.9825682061161345 3.048520684692379 -3.9674243057264094 3.051746604302025 -3.953714147385415 C 3.0531803463507563 -3.947889570312444 3.067338549081979 -3.9402728156785587 3.074507259325636 -3.9413481222151066 C 3.1350828608845385 -3.9501297922635867 3.1953896358093026 -3.959628333336432 3.2555171929779765 -3.971008660848238 C 3.371202254534992 -3.992873227091392 3.4866184894578707 -4.016619579773506 3.6023035510148858 -4.038752972650797 C 3.673363391305137 -4.0522839132357 3.73913630779069 -4.052463130991791 3.801593695788552 -4.000669199481369 C 3.85724080905494 -3.954520627287826 3.9314369600767907 -3.939914380166375 4.002407191488995 -3.9467246548978494 C 4.095510815778491 -3.955595933824375 4.151695582313153 -3.90093451821649 4.210030961920912 -3.8464523203646963 C 4.22992413284706 -3.827813673731188 4.225264471188684 -3.7882961585130284 4.203220687189438 -3.7705536006599774 C 4.188500052381139 -3.759032828392343 4.172357197426917 -3.74945553757995 4.1551903285569365 -3.7420579774414406 C 4.118181861924057 -3.725480335002984 4.112357284851085 -3.703257333247647 4.1236480034848455 -3.6634709913953505 C 4.14318273889881 -3.594203328666014 4.126784314216445 -3.569471278325397 4.0586815669017025 -3.553341680277169 C 3.9945216102209726 -3.538108171009397 3.9291967381256474 -3.528430412180461 3.8644095192985968 -3.515885169254061 C 3.762613833838667 -3.496171216084004 3.6609077572567825 -3.476457262913947 3.559201680674898 -3.4560264387195248 C 3.545849957846087 -3.4533381723781535 3.5291827065295847 -3.4457214177442674 3.5366202434073784 -3.429591819696039 C 3.540831860675527 -3.420541323013422 3.558574418528578 -3.412566132867354 3.569865137162338 -3.413103786135628 C 3.6027515954051146 -3.4144479193063138 3.6359964891600747 -3.417853056672051 3.6680764675004394 -3.4250217669157075 C 3.741734965254016 -3.441509800476119 3.7859121421305524 -3.412745350623445 3.805715704178655 -3.341954336967332 C 3.7463453517695595 -3.3131688377558337 3.6827585288470646 -3.294050439997976 3.617357842526566 -3.2853215260424413 C 3.591729703405492 -3.2818267797986582 3.573091056771984 -3.2642634397016987 3.571388488089115 -3.239083344970853 C 3.569282002764846 -3.2017644527758944 3.57018099092169 -3.1643365791792735 3.574076754430487 -3.127161856291757 C 3.5756786132038747 -3.112392472584218 3.5887508858744597 -3.1015850009538255 3.6035580753075265 -3.1027882414633234 C 3.631784871891926 -3.104132374634009 3.65992205959828 -3.107627120877792 3.6879696384265883 -3.1068206409753802 C 3.7198703990108615 -3.1060141610729692 3.7405700498394214 -3.0885404298540546 3.7457673647660727 -3.0562812337575984 C 3.750964679692724 -3.024380473173325 3.7368064769615015 -2.9998276405887996 3.708042027108828 -2.9885369219550393 C 3.682145061353617 -2.9784111187358735 3.653201393744851 -2.975633243516457 3.6258706859409084 -2.9685541421508455 C 3.590564787990898 -2.959234818834091 3.5675353063331494 -2.938445559127486 3.5684313951136066 -2.899286479421509 C 3.569237875016018 -2.8623676216666754 3.5557069344311154 -2.819982622351053 3.584650602039881 -2.791218172498379 C 3.6111748299414117 -2.7647835534748935 3.6471975989157888 -2.789963648205739 3.6790983595000624 -2.7898740393276937 C 3.6884276208998874 -2.7896873002658515 3.6976620410184977 -2.787961523391226 3.706429067304005 -2.7847663332790877 C 3.729607962473641 -2.7777870097002224 3.7457574786029397 -2.756807057942965 3.746573844668484 -2.732613966256483 C 3.7484556311074444 -2.7069858271354086 3.7386882634004612 -2.6848524342581177 3.7153899551085763 -2.6748162399169977 C 3.6896722071094565 -2.663794347917375 3.66117658389092 -2.6593139040150895 3.6342939204772056 -2.650621842844655 C 3.5738079277963495 -2.6310871074306896 3.568969048381881 -2.624097614943124 3.567624915211195 -2.5617298358233076 C 3.5654743021380986 -2.4719417400215034 3.577661109552315 -2.4561705774854574 3.660190886232417 -2.475884530655515 C 3.7065186761820508 -2.4868168137770916 3.7525776394975474 -2.46907425592404 3.806342966324975 -2.486727204899046 C 3.803744308861649 -2.7732963968892363 3.811629890129672 -3.0594175444891984 3.801683304666598 -3.3456283009672063 M 3.436795953264454 -2.8798413528855895 L 3.4375128242888198 -2.8798413528855895 C 3.4375128242888198 -2.9924797125890508 3.4348245579474486 -3.1052972900486036 3.4384985219473228 -3.2177564319959733 C 3.44064913502042 -3.283529348481527 3.419232613167494 -3.334068755699309 3.374338565266592 -3.3814718521854914 C 3.241986252393074 -3.521530528570941 3.11268064137311 -3.6645462979318992 2.9818516794263688 -3.8062179341221714 C 2.823692009675685 -3.9774605000675294 2.880772864990804 -3.9473519170441698 2.657377932022842 -3.9095369705088783 C 2.6528078792425105 -3.9087304906064673 2.6480586087060876 -3.9081032284601473 2.643488555925756 -3.906938313045553 C 2.606748915927014 -3.898156642997073 2.5951893706591167 -3.8739622459247305 2.616695501390088 -3.846989973632971 C 2.6401730274380646 -3.817598261633977 2.66535312216891 -3.7896402916837144 2.6908020435338926 -3.761951148367589 C 2.8179570414807595 -3.623326214030871 2.943767906256941 -3.4834467554015127 3.0734319527890874 -3.3473308696500745 C 3.12208957356791 -3.296343418042064 3.145477490737841 -3.2436533977511846 3.143954139811064 -3.171966295314614 C 3.139832131420961 -2.974826763614045 3.1427892243964695 -2.777687231913476 3.1426996155184237 -2.5805477002129074 C 3.142610006640378 -2.3304493215873223 3.1289894571774295 -2.3815263820733787 3.360359580291461 -2.416473844511207 C 3.365019241949838 -2.4171907155355723 3.369410076974078 -2.41934132860867 3.3738905208763637 -2.4206854617793554 C 3.4242507103380544 -2.436098188803218 3.43563103784986 -2.447120080802841 3.43625829999618 -2.4996308833376286 C 3.437781650922957 -2.626337836894267 3.436795953264454 -2.753134399328951 3.436795953264454 -2.879841352885589 M 4.655924739076381 -3.1609444033149914 C 4.849121480142938 -3.161302838827174 5.0421390034534035 -3.1661417182416423 5.22951116744699 -3.2208927427275733 C 5.28157392559155 -3.2361262519953446 5.343672878077229 -3.2363054697514357 5.3700178882226695 -3.298762857749298 C 5.3373106477359835 -3.3458971276013427 5.281125881201321 -3.3472412607720288 5.2344396557395045 -3.366775996185994 C 5.221715195057014 -3.372152528868737 5.206929730179471 -3.372690182137011 5.193129962960431 -3.3757368839905655 C 4.938282313798423 -3.432728130427639 4.6802087450267695 -3.443391586915079 4.421149478596613 -3.4191075809646905 C 4.295069787186295 -3.4073688179407022 4.168004398117473 -3.3953612282825767 4.047480457145989 -3.3501087448694915 C 4.013877127878846 -3.337473893065046 3.9662948136365728 -3.3324557958944863 3.9662948136365728 -3.2901604054569096 C 3.966205204758527 -3.253599983214259 4.012801821342299 -3.247685797263242 4.04264157773152 -3.2380976473123506 C 4.0964850897429965 -3.2214402353243625 4.151124529985389 -3.2074738321534824 4.206356997921041 -3.196250301265001 C 4.354480473330602 -3.1646183673148656 4.5052026062034916 -3.161930100973494 4.655924739076381 -3.1609444033149914 M 3.0129459601082313 -3.0725004406838723 C 3.013662831132597 -3.15072899121778 3.001117588206197 -3.164439149558774 2.9226202110381525 -3.1512666444860544 C 2.788027676213491 -3.128864424974626 2.6540624035351503 -3.102071370438958 2.5199179131007177 -3.0770704934642037 C 2.3302159182779434 -3.0416749866361465 2.14006587906494 -3.008250875125096 1.9510807552665312 -2.9694502309313022 C 1.8922077223904978 -2.9573530323951314 1.8504499852211953 -2.9724969327848565 1.8131726919541786 -3.014881932100479 C 1.7913081257110246 -3.0396139824410957 1.767740990785002 -3.062553855220798 1.744980335761391 -3.086479425659004 C 1.6249044391801355 -3.212469508191276 1.5050077603549712 -3.33863880847964 1.3847526460176245 -3.4644496732558214 C 1.368712656847442 -3.4812065334503695 1.3523142321650763 -3.5004724422301976 1.3254315687513625 -3.4962608249620497 C 1.3063448777276254 -3.4932141231084954 1.3038358291423457 -3.435595614525102 1.3218472136295338 -3.4068311646724276 C 1.3292847020432963 -3.3948884388869436 1.337900334475111 -3.383721138313302 1.3475649616286538 -3.3734966620394222 C 1.5224814915738856 -3.1892608087774366 1.697935674787392 -3.0055626087837246 1.8725833780984866 -2.821057928887601 C 1.9049321830729893 -2.786827337474139 1.9394316011205888 -2.778941756206116 1.9865658709726337 -2.7881714706448246 C 2.300644988522858 -2.8499119876183214 2.6154409770974483 -2.908068149469989 2.92978892128181 -2.9686437510288908 C 3.0046123344499804 -2.9830707803942507 3.0122290890838657 -2.995167978930422 3.012945960108232 -3.0725004406838723 M 3.0126771334740945 -2.7534928348411336 C 3.012945960108232 -2.830466861082401 2.9963683176697744 -2.84659645913063 2.920917642355284 -2.8347680872285954 C 2.851201935235719 -2.823746195228973 2.7821134902624745 -2.8086022948392473 2.7128458275331386 -2.795250572010436 C 2.4585358316394044 -2.746503342353568 2.2039570091115337 -2.698741810355203 1.9500054487299825 -2.648292012015467 C 1.8982115172195606 -2.6380765999182554 1.857797913220944 -2.6479335765032834 1.8230296685392071 -2.6868238295751232 C 1.801075493418007 -2.7113766621596485 1.777329140735893 -2.7342269260613055 1.7546580945903278 -2.7581524964995108 C 1.6314458872774724 -2.887726934153612 1.5087713332328911 -3.0177494161979417 1.384573428261533 -3.1464277650715857 C 1.3678165680669845 -3.1637222785344083 1.347296134994516 -3.200013874142922 1.3181732496296592 -3.1699052911195627 C 1.298369687581557 -3.14947446692514 1.3062552688495797 -3.115960746536043 1.3208615159710306 -3.0905118251710606 C 1.330180839287785 -3.0744718360008783 1.3432637354824593 -3.0604032421477014 1.356167413921042 -3.046782692684753 C 1.524811322403074 -2.869536331910332 1.6946201462997001 -2.69336527767246 1.8616510949769092 -2.5145955659712627 C 1.9016166545852973 -2.4718521311434576 1.9421198674619595 -2.4584107994366007 1.99937994053317 -2.470418389094726 C 2.142126883259991 -2.5003477543619943 2.286128350279452 -2.5249005869465195 2.4294129462745473 -2.5526793391406906 C 2.595727023927391 -2.584848926359102 2.7616826660680514 -2.619706779918884 2.9283551792330775 -2.650084189576381 C 3.0051499877182537 -2.6641527834295577 3.012497915718002 -2.6847628253800715 3.0126771334740936 -2.7534928348411336 M 3.0119602624497284 -2.4127998805113324 C 3.0119602624497284 -2.4502563915344404 3.0124979157180025 -2.4596653237292405 3.011781044693637 -2.4689846470459944 C 3.0085551250839915 -2.510742384215297 2.988841171913934 -2.5274096355317996 2.947441870256815 -2.5220331028490572 C 2.9288928325013526 -2.5196136631418224 2.910612621380027 -2.514416348215171 2.8921531925026103 -2.5108319930933427 C 2.5916050155372883 -2.453482311144086 2.290608794181738 -2.3981936333898815 1.990777488240782 -2.337618031830979 C 1.9081581026826344 -2.320861171636431 1.8482097632700525 -2.3360050720261567 1.7907704724427504 -2.4003442464629785 C 1.674995802007689 -2.530097901873171 1.5522316390850621 -2.653847762454301 1.432066133625761 -2.779658627230482 C 1.40616916787055 -2.806810117278333 1.3789280689446533 -2.832707083033544 1.3509700989943907 -2.8576183511302524 C 1.3434091275829192 -2.863161153200903 1.3336677171151108 -2.8647902628013213 1.3247146977269963 -2.8620091861544923 C 1.3180836407516134 -2.8591417020570296 1.3132447613371452 -2.8481198100574066 1.3111837571420937 -2.839786184399155 C 1.2998034296302885 -2.792203870156882 1.3264172664098652 -2.7601238918165163 1.3566154583112704 -2.7284023489883342 C 1.5223022738177943 -2.554919561091834 1.6886163514706376 -2.382064035341653 1.8519733361479724 -2.2063410254940097 C 1.8994660415122004 -2.1551743561299075 1.9497366220958454 -2.1445108996424675 2.016047191849673 -2.1576834047151876 C 2.3069176099860575 -2.2154811310546725 2.598415290268762 -2.269694502272329 2.8896441439173297 -2.3257000510508994 C 2.9173332872334554 -2.3309869748555965 2.9444847772813065 -2.3394998182699394 2.9716362673291576 -2.3471165729038246 C 2.9975332330843685 -2.354285283147482 3.009271996108357 -2.373013538659036 3.011153782547317 -2.39864167778011 C 3.01213948020582 -2.4127102716332867 3.0124979157180025 -2.4267788654864635 3.0119602624497284 -2.4127998805113324 M 5.376917771832188 -2.8301084255702182 C 4.904230940141052 -2.7075234804036827 4.430648019669458 -2.7081507425500027 3.957692361344184 -2.8291227279117157 C 3.925791600759911 -2.71908302567158 3.933139528759659 -2.6973976771845174 4.019164051683544 -2.6630774768930094 C 4.054148933084673 -2.6493755528990817 4.09016505950216 -2.6384688390754834 4.126873923094491 -2.6304598452843697 C 4.462011126985457 -2.5558156498722906 4.798671681803201 -2.5568909564088393 5.135780281011174 -2.61477829162637 C 5.195639011545711 -2.625172921479673 5.2549600888119725 -2.642557043820541 5.311951335249046 -2.663794347917375 C 5.3980654670509765 -2.6957847173796945 5.405234177294633 -2.7187245901593973 5.376917771832188 -2.8301084255702182 M 4.695352645416494 -2.862188403910584 C 4.791413362681499 -2.8697155496664237 4.918657969506412 -2.875540126739395 5.044737660916731 -2.891042462641303 C 5.1236830824750035 -2.90072022147024 5.201373979740636 -2.922943223225577 5.278527223737996 -2.9434636562980456 C 5.309711113297904 -2.951797281956297 5.339819696321263 -2.968016488882571 5.367150404125206 -2.985579828979531 C 5.396631725002246 -3.0044873022471763 5.408191270270143 -3.0674823435133125 5.387491619441582 -3.1009064550243632 C 5.368404928417846 -3.1318215179501347 5.337937909882303 -3.115960746536043 5.311503290858818 -3.109508907316752 C 5.302363185298155 -3.1072686853656095 5.293850341883813 -3.102429805951141 5.284799845201196 -3.1001895839999976 C 4.96050531555376 -3.0193623760027646 4.632267995272313 -3.0169429362955302 4.302148888551907 -3.0526072697577242 C 4.199199366854918 -3.064217961087285 4.097482874312174 -3.0849390979820477 3.998195574220849 -3.1145270044873117 C 3.957333925832002 -3.126444985267392 3.9388744969545857 -3.107627120877792 3.936723883881488 -3.0642564239036667 C 3.9343044441742543 -3.016136456393119 3.9515093487590307 -2.981188993955291 3.9978371387086646 -2.965149004785108 C 4.050885594511726 -2.9466895759076914 4.104113268070881 -2.9266171872254514 4.15886429255681 -2.914609597567326 C 4.325178370209654 -2.8779595664466298 4.494449540838007 -2.8685506342518297 4.695352645416496 -2.862188403910584 M 4.654939041417879 -2.286361753588831 C 4.848046173606391 -2.285913709198603 5.040526043648582 -2.2923655484178944 5.227987816520214 -2.345503613099002 C 5.26840142051883 -2.3568839406108077 5.308904633395493 -2.3703252723176647 5.346809188808829 -2.388247047926807 C 5.393585023148692 -2.410201223048007 5.412671714172428 -2.4729274376800063 5.388566925978132 -2.520330534166188 C 5.374319114368864 -2.548557330750588 5.34743645095515 -2.535295216799822 5.32673680012659 -2.52929142197076 C 5.084792829403164 -2.4595757148511947 4.837203499362859 -2.4400409794372293 4.587105120737274 -2.4464032097784756 C 4.389338326890385 -2.4514213069490354 4.193632537238548 -2.474450788606783 4.002586409245088 -2.52929142197076 C 3.9527638730516714 -2.543539233580028 3.9364550572473513 -2.526244720117205 3.93564857734494 -2.473823526460463 C 3.93502131519862 -2.431080091632658 3.9522262197833964 -2.400881899731253 3.9902203840747794 -2.3844834750488872 C 4.024670288324028 -2.3696197750513774 4.060087051507017 -2.357105652472773 4.096227686802856 -2.3470269640257797 C 4.2789401891380665 -2.295501859149494 4.466401962009699 -2.285824100320557 4.654939041417879 -2.286361753588831 M 2.4228714981772113 -3.835788863877257 C 2.398497883348777 -3.8655390113884334 2.3688373447156463 -3.855054772657085 2.343388423350664 -3.850305502120662 C 2.047231081409582 -3.7948376066103657 1.751432174980683 -3.7380255779293834 1.4554540507956926 -3.6815719847605846 C 1.4508839980153618 -3.6806758959801273 1.4464035541130762 -3.679242153931396 1.4418335013327441 -3.6779876296387557 C 1.4090366519680133 -3.6692059595902755 1.3991796753829848 -3.640351900859556 1.4240013346016476 -3.614006890714117 C 1.5720352011331653 -3.456205656475616 1.7215028097134148 -3.299748555407801 1.8698055028790697 -3.1422161478034374 C 1.8977634728293322 -3.1125556091703066 1.928499317999012 -3.0968740555123064 1.9701674462902685 -3.1054765078046946 C 1.993107319069971 -3.1103153872191633 2.0170328895081764 -3.110673822731346 2.0401519800439702 -3.1149750488775405 C 2.29455158481575 -3.16327423414418 2.549040798465575 -3.2105877217523164 2.8028131410910344 -3.261754391116419 C 2.836595688114268 -3.268564665847893 2.8798767762103474 -3.2628296976529674 2.9026374312339587 -3.301540732968715 C 2.8683172309424507 -3.3426712079916974 2.8250361428463715 -3.3177599398949895 2.7884757206037203 -3.3114873184317895 C 2.6262836513409797 -3.283529348481527 2.464450017590422 -3.2520766322874812 2.303243645986184 -3.218204476386202 C 2.235768160817762 -3.2040462736549795 2.178060043356323 -3.1999242652648765 2.1185597483339693 -3.2493883659461105 C 2.0600451509701188 -3.2981355956029783 1.9835191691190797 -3.3199105529680866 1.9065451428778122 -3.3129210604805213 C 1.83279703624619 -3.306379612383184 1.7799277981992196 -3.340789421552738 1.7280442578107518 -3.381830287697674 C 1.6723075356663182 -3.425917855696165 1.6703361403493124 -3.47242486340189 1.7323454839569457 -3.5017269665228383 C 1.7954301341011276 -3.5316563317901064 1.8017027555643277 -3.5647220077889745 1.776253834199345 -3.622430125250414 C 1.7635293735168538 -3.651463401737225 1.7861108107843733 -3.6774499763704815 1.8126350386859043 -3.6903536548090643 C 1.8331554717583725 -3.7003898491501843 1.8575290865868068 -3.7030781154915555 1.8805585682445547 -3.7075585593938416 C 2.0237535553616044 -3.7353373115880126 2.167127760234745 -3.7624888016358637 2.310322747351795 -3.7902675538300343 C 2.35055713359432 -3.7979739173419658 2.3940174394464906 -3.7990492238785145 2.4228714981772104 -3.835788863877257 M 1.918194297023754 -3.4575497896463023 C 1.9920320125334219 -3.4356852234031483 2.061926937409078 -3.4285165131594906 2.1161403086267345 -3.3957196637947598 C 2.204584271257853 -3.3424023813575605 2.2899815320354175 -3.335860933260224 2.3849669427638736 -3.364266947600715 C 2.4299505995428214 -3.3776186704295257 2.477891349297278 -3.3809341989172172 2.5234126593445003 -3.3924041353070686 C 2.6045983028539164 -3.4127453506234455 2.6923253944606698 -3.4069207735504743 2.7664319366044743 -3.4540550434025192 C 2.7432232371906347 -3.550922240569935 2.653883185779059 -3.596981203885431 2.5987737257809447 -3.669295568468322 C 2.5772675950499737 -3.6975223650527216 2.5464421410022484 -3.7050495108085615 2.510060936515689 -3.6978808005649046 C 2.3389079794483774 -3.6641878624197166 2.1675758046249736 -3.6316598396891226 1.9959748031674331 -3.59993829686094 C 1.9586079010223703 -3.5929488043733744 1.936653725901171 -3.5751166376422776 1.931994064242794 -3.5367640378387124 C 1.929126580145331 -3.513734556180964 1.9241084829747712 -3.490973901157353 1.918194297023754 -3.4575497896463023 M 3.177288642444069 -3.813207426609737 C 3.181769086346354 -3.758635619879898 3.2257670454667995 -3.7330970896368694 3.256682108392571 -3.7003002402721386 C 3.30121772078129 -3.6532555792981394 3.3334769168777467 -3.5884683604710887 3.3985329623389346 -3.568306362910803 C 3.4584813017515166 -3.549667716277295 3.518160814529961 -3.583808698812711 3.578019545064498 -3.5931280221294655 C 3.693794215499559 -3.611139406616654 3.808762406032209 -3.6349753681768138 3.923461769930722 -3.659348983005248 C 3.9679077734413952 -3.668757915200048 3.9937151303185607 -3.7201934111982866 3.987263291099269 -3.784532585635109 C 3.9835893270993954 -3.8216306611460342 3.948283429149384 -3.8200177013412113 3.921669592369808 -3.8224371410484457 C 3.869069180956974 -3.8270968027068224 3.816199942910003 -3.838835565730811 3.774979859008975 -3.8677792333395766 C 3.7015901878895363 -3.919483555971953 3.6272148191115945 -3.9177809872890843 3.5468356555045895 -3.8963644654361587 C 3.515293330432499 -3.8879412308998615 3.481600392287311 -3.88713475099745 3.4500580672152195 -3.8783530809489704 C 3.360269971413415 -3.8533522039742163 3.2636716008801363 -3.8562196880716795 3.177288642444069 -3.813207426609737" fill="#fffcf7" transform="matrix(1,0,0,1,0,0)" fill-rule="nonzero"></path></g><g clip-path="url(#a5dea35ef-7089-4a19-a9fa-3df1c9dc72c8648acab3-3395-4101-934b-750b7ee356ef)"><path d=" M 3.3524739990234376 -0.37097198536171394 C 4.889087039751326 -0.37097198536171394 6.1348296623428284 -1.6167146079532175 6.1348296623428284 -3.1533276486811053 C 6.1348296623428284 -4.689940689408994 4.889087039751326 -5.935683312000497 3.3524739990234376 -5.935683312000497 C 1.8158609582955496 -5.935683312000497 0.5701183357040461 -4.689940689408994 0.5701183357040461 -3.1533276486811053 C 0.5701183357040461 -1.6167146079532175 1.8158609582955496 -0.37097198536171394 3.3524739990234376 -0.37097198536171394 Z" fill="none" transform="matrix(1,0,0,1,0,0)" fill-rule="nonzero" stroke-dasharray="none" stroke-miterlimit="4" stroke-linejoin="miter" stroke-linecap="butt" stroke-width="0.24194397072342538" stroke="#fffcf7"></path></g></g><g><path d=" M 0.0915 1.0649999999999997 L 0.0915 -2.220446049250313e-16 L 0.8220000000000001 -2.220446049250313e-16 L 0.8220000000000001 0.25499999999999967 L 0.384 0.25499999999999967 L 0.384 0.4319999999999997 L 0.741 0.4319999999999997 L 0.741 0.6689999999999997 L 0.384 0.6689999999999997 L 0.384 1.0649999999999997 L 0.0915 1.0649999999999997 M 1.405482421875 1.0739999999999996 Q 1.277982421875 1.0739999999999996 1.186482421875 1.0319999999999998 Q 1.094982421875 0.9899999999999998 1.037232421875 0.9164999999999998 Q 0.979482421875 0.8429999999999997 0.952482421875 0.7477499999999997 Q 0.925482421875 0.6524999999999996 0.925482421875 0.5474999999999998 L 0.925482421875 -2.220446049250313e-16 L 1.217982421875 -2.220446049250313e-16 L 1.217982421875 0.5474999999999998 Q 1.217982421875 0.5999999999999996 1.228482421875 0.6479999999999997 Q 1.2389824218749999 0.6959999999999997 1.261482421875 0.7334999999999997 Q 1.283982421875 0.7709999999999997 1.319232421875 0.7927499999999997 Q 1.354482421875 0.8144999999999998 1.405482421875 0.8144999999999998 Q 1.457982421875 0.8144999999999998 1.493982421875 0.7927499999999997 Q 1.529982421875 0.7709999999999997 1.551732421875 0.7327499999999998 Q 1.573482421875 0.6944999999999997 1.583982421875 0.6464999999999997 Q 1.594482421875 0.5984999999999997 1.594482421875 0.5474999999999998 L 1.594482421875 -2.220446049250313e-16 L 1.886982421875 -2.220446049250313e-16 L 1.886982421875 0.5474999999999998 Q 1.886982421875 0.6584999999999996 1.857732421875 0.7544999999999997 Q 1.828482421875 0.8504999999999997 1.769982421875 0.9224999999999997 Q 1.711482421875 0.9944999999999997 1.620732421875 1.0342499999999997 Q 1.529982421875 1.0739999999999996 1.405482421875 1.0739999999999996 M 2.351953857421875 0.5414999999999998 L 2.351953857421875 1.0649999999999997 L 2.059453857421875 1.0649999999999997 L 2.059453857421875 -2.220446049250313e-16 L 2.287453857421875 -2.220446049250313e-16 L 2.714953857421875 0.5414999999999998 L 2.714953857421875 -2.220446049250313e-16 L 3.0074538574218748 -2.220446049250313e-16 L 3.0074538574218748 1.0649999999999997 L 2.774953857421875 1.0649999999999997 L 2.351953857421875 0.5414999999999998 M 3.1949963378906245 1.0649999999999997 L 3.1949963378906245 -2.220446049250313e-16 L 3.6044963378906245 -2.220446049250313e-16 Q 3.7814963378906246 -2.220446049250313e-16 3.9007463378906246 0.0712499999999997 Q 4.019996337890625 0.14249999999999974 4.080746337890624 0.26324999999999976 Q 4.141496337890625 0.3839999999999997 4.141496337890625 0.5309999999999997 Q 4.141496337890625 0.6929999999999997 4.074746337890625 0.8129999999999997 Q 4.007996337890624 0.9329999999999997 3.8872463378906246 0.9989999999999997 Q 3.766496337890625 1.0649999999999997 3.6044963378906245 1.0649999999999997 L 3.1949963378906245 1.0649999999999997 M 3.8444963378906247 0.5309999999999997 Q 3.8444963378906247 0.4484999999999997 3.8159963378906245 0.38624999999999976 Q 3.787496337890625 0.32399999999999973 3.7334963378906245 0.28949999999999976 Q 3.6794963378906247 0.25499999999999967 3.6044963378906245 0.25499999999999967 L 3.4874963378906245 0.25499999999999967 L 3.4874963378906245 0.8099999999999997 L 3.6044963378906245 0.8099999999999997 Q 3.6809963378906247 0.8099999999999997 3.7342463378906245 0.7739999999999998 Q 3.787496337890625 0.7379999999999998 3.8159963378906245 0.6742499999999998 Q 3.8444963378906247 0.6104999999999997 3.8444963378906247 0.5309999999999997 M 5.42096484375 1.0649999999999997 L 5.42096484375 0.5039999999999997 L 5.24246484375 0.8984999999999997 L 5.08646484375 0.8984999999999997 L 4.90796484375 0.5039999999999997 L 4.90796484375 1.0649999999999997 L 4.61546484375 1.0649999999999997 L 4.61546484375 -2.220446049250313e-16 L 4.93496484375 -2.220446049250313e-16 L 5.16446484375 0.5009999999999997 L 5.39546484375 -2.220446049250313e-16 L 5.71346484375 -2.220446049250313e-16 L 5.71346484375 1.0649999999999997 L 5.42096484375 1.0649999999999997 M 6.659970703125 0.8099999999999997 L 6.659970703125 1.0649999999999997 L 5.900970703125 1.0649999999999997 L 5.900970703125 -2.220446049250313e-16 L 6.646470703125 -2.220446049250313e-16 L 6.646470703125 0.25499999999999967 L 6.1934707031250005 0.25499999999999967 L 6.1934707031250005 0.4049999999999997 L 6.580470703125 0.4049999999999997 L 6.580470703125 0.6419999999999997 L 6.1934707031250005 0.6419999999999997 L 6.1934707031250005 0.8099999999999997 L 6.659970703125 0.8099999999999997" fill="#fffcf7" fill-rule="nonzero"></path></g><g></g></g><defs><clipPath id="SvgjsClipPath1002"><path d=" M 0.44914635034233363 -6.056655297362209 h 5.806655297362209 v 5.806655297362209 h -5.806655297362209 Z"></path></clipPath><clipPath id="a5dea35ef-7089-4a19-a9fa-3df1c9dc72c8648acab3-3395-4101-934b-750b7ee356ef"><path d=" M 0.4491463503423335 -0.2500000000000009 L 6.2558016477045415 -0.2500000000000009 L 6.2558016477045415 -6.056655297362209 L 0.4491463503423335 -6.056655297362209 Z"></path></clipPath></defs></svg>